<?xml version="1.0" encoding="UTF-8"?>
<svg id="Layer_1" xmlns="http://www.w3.org/2000/svg" version="1.1" viewBox="0 0 355 43">
  <!-- Generator: Adobe Illustrator 29.6.1, SVG Export Plug-In . SVG Version: 2.1.1 Build 9)  -->
  <defs>
    <style>
      .st0 {
        fill: #564b41;
      }
    </style>
  </defs>
  <path class="st0" d="M355,35.61v-6.68h-.26l-3.32,4.75h-8.89v-12.21h8.33l2.24,2.98h.22v-7.89h-.22l-2.24,3.02h-8.33v-10.62h8.03l3.19,3.8h.26v-5.69h-19.53v.26l2.93,2.32v23.38l-2.93,2.32v.26h20.52ZM292.03,35.61v-.26l-3.71-2.45V13.31l19.97,22.3h2.02V9.77l3.15-2.45v-.26h-9.1v.26l3.58,2.45v17.99l-18.34-20.7h-7.07v.26c.43.34,2.11,1.98,3.36,3.36v22.22l-3.11,2.45v.26h9.23ZM237.9,21.38c0-7.81,4.23-12.86,8.93-12.86s9.1,4.96,9.1,12.86-4.27,12.73-9.02,12.73-9.02-4.92-9.02-12.73M232.26,21.72c0,8.67,6.85,14.4,14.7,14.4s14.58-6.29,14.58-15.14-6.64-14.45-14.7-14.45-14.58,6.42-14.58,15.18M182.35.07l-12.81,42.31,1.81.56L184.16.63l-1.81-.56ZM122.74,35.61v-6.68h-.26l-3.32,4.75h-8.89v-12.21h8.33l2.24,2.98h.22v-7.89h-.22l-2.24,3.02h-8.33v-10.62h8.03l3.19,3.8h.26v-5.69h-19.53v.26l2.93,2.32v23.38l-2.93,2.32v.26h20.52ZM59.77,35.61v-.26l-3.71-2.45V13.31l19.97,22.3h2.02V9.77l3.15-2.45v-.26h-9.1v.26l3.58,2.45v17.99L57.36,7.06h-7.07v.26c.43.34,2.11,1.98,3.36,3.36v22.22l-3.11,2.45v.26h9.23ZM5.64,21.38c0-7.81,4.23-12.86,8.93-12.86s9.1,4.96,9.1,12.86-4.27,12.73-9.02,12.73-9.02-4.92-9.02-12.73M0,21.72c0,8.67,6.85,14.4,14.7,14.4s14.58-6.29,14.58-15.14-6.64-14.45-14.7-14.45S0,12.96,0,21.72"/>
</svg>